PathFileType	4	(X/Y/Z)	D:\TRACE\v60_Jaco2_6-2-23\JustBodyDRS_Motion3_7-v60.trc
DataRate	CameraRate	NumFrames	NumMarkers	Units	OrigDataRate	OrigDataStartFrame	OrigNumFrames
100.00	100.00	      34	9	mm	100.00	4376	      7000
Frame#	Time	front left toe			Front right toe			aft left toe			aft right toe			Arm			FL body			FR body			AL Body			AR Body			
		X1	Y1	Z1	X2	Y2	Z2	X3	Y3	Z3	X4	Y4	Z4	X5	Y5	Z5	X6	Y6	Z6	X7	Y7	Z7	X8	Y8	Z8	X9	Y9	Z9	

4376	43.750	-125.02409	65.64271	-276.06897	243.86472	-26.23004	-305.13828	-111.90022	53.65173	325.34924	266.63483	145.03255	324.48077	76.75591	1125.08350	-453.78738	-29.29542	474.39105	-466.06979	128.89781	472.95248	-472.07986	15.13437	615.92267	466.62103	166.66994	605.42035	461.31116	
4377	43.760	-125.17761	76.07069	-278.26102	244.05634	-25.92121	-304.97595	-111.81119	53.47009	325.37781	266.94684	155.74997	322.43134	76.86225	1124.79175	-453.87378	-28.74257	473.88260	-466.05283	129.03236	472.98383	-472.19067	14.98207	615.86029	466.30066	166.59021	605.51074	461.37997	
4378	43.770	-125.14584	85.07276	-280.23953	243.95355	-25.81160	-304.90909	-111.77129	53.31929	325.44669	266.15067	165.26746	320.53510	76.87931	1124.48572	-454.07986	-28.45061	473.52722	-466.41284	129.59235	472.54547	-472.71259	14.89072	615.83215	466.06409	166.51587	605.49445	461.20505	
4379	43.780	-126.00317	92.50304	-281.85580	243.71684	-25.75160	-305.02322	-111.72554	53.04579	325.51181	265.01740	173.03435	318.81143	76.53689	1124.33765	-454.52362	-28.04862	472.98770	-466.47983	129.39648	472.59445	-472.51605	14.68554	615.74823	465.72565	166.10541	605.34662	460.86835	
4380	43.790	-127.00723	97.95364	-283.35889	243.74817	-25.51339	-304.92734	-111.61613	52.70862	325.62274	265.00180	177.91180	318.10211	76.00141	1124.16492	-455.30606	-28.06615	472.85571	-466.99902	129.92065	472.07306	-472.50305	14.49038	615.62482	465.52200	165.80324	605.31958	460.69037	
4381	43.800	-127.75564	100.73859	-284.65332	243.82042	-25.34735	-304.80649	-111.53486	52.41541	325.72873	264.90216	179.51634	316.98175	75.98447	1123.86487	-455.76132	-27.56046	472.59891	-467.16183	130.42271	471.78510	-472.47217	14.40656	615.64709	465.41504	165.51494	605.39008	460.66983	
4382	43.810	-128.68292	100.13290	-285.11871	244.04857	-25.12070	-304.73117	-111.44751	52.17807	325.72955	266.45941	178.55084	316.43134	76.16185	1123.51099	-456.23648	-27.20452	472.57480	-467.54724	130.73787	471.74429	-472.73459	14.05618	615.81372	465.19498	165.31451	605.52698	460.68005	
4383	43.820	-128.96185	96.36201	-285.34549	244.30035	-24.89144	-304.52203	-111.43501	52.08937	325.77600	267.10294	175.14932	315.37009	76.94437	1123.14307	-456.38519	-26.71816	472.42548	-467.74689	131.34238	471.37473	-473.04535	13.37569	616.05127	464.97168	164.87112	605.77496	460.61636	
4384	43.830	-129.06699	91.14542	-285.75717	244.19136	-24.72685	-304.56525	-111.44119	51.78323	325.78784	267.13049	170.20824	314.53760	76.34806	1123.33411	-456.46030	-26.48351	472.22018	-467.96896	131.63219	471.35550	-473.07727	12.94844	616.03595	464.87759	164.39246	605.91382	460.47864	
4385	43.840	-129.09245	84.74799	-286.89639	244.34933	-24.38888	-304.43307	-111.39814	51.52289	325.88098	266.86481	164.25841	313.47559	76.73956	1123.32678	-456.37000	-26.16751	472.03668	-468.07742	131.92760	471.33862	-473.13910	12.27799	615.87030	464.55548	163.74127	605.96381	460.39688	
4386	43.850	-128.90315	77.27171	-287.91269	244.37173	-24.19121	-304.29614	-110.83424	50.87162	325.78976	266.45691	157.35786	312.35315	77.41409	1123.21790	-456.43320	-25.42842	471.75552	-467.89490	132.16724	471.50616	-472.91058	11.97187	615.73248	464.46268	163.36121	605.96790	460.37082	
4387	43.860	-128.56528	68.81175	-289.35013	244.49342	-23.94413	-304.05966	-110.70898	50.69471	325.83008	266.06473	149.21629	311.07358	76.52955	1123.60876	-456.49036	-25.50705	471.98056	-468.33981	132.62067	471.52316	-473.42477	11.76774	615.62659	464.38721	163.03578	605.92487	460.37576	
4388	43.870	-128.75397	60.06736	-291.22290	244.59476	-23.73759	-303.79791	-110.58119	50.53144	325.92477	265.47794	139.54234	310.13110	76.37466	1123.58044	-456.36215	-24.96645	472.01724	-468.53247	132.71608	471.93433	-473.30453	11.50428	615.50757	464.32553	162.77985	605.84296	460.37451	
4389	43.880	-129.16020	50.42190	-293.01471	244.63004	-23.66150	-303.70749	-111.19148	50.74611	326.14410	264.97809	128.76180	309.12219	76.06822	1123.57776	-456.35394	-24.64675	472.12216	-468.80142	132.82632	472.17615	-473.43124	10.89037	615.21173	464.17813	162.48579	605.58722	460.38269	
4390	43.890	-129.52611	40.57074	-294.32288	244.63744	-23.54434	-303.62201	-111.62409	50.86674	326.01929	264.61139	117.07876	308.23209	75.36832	1123.58911	-456.43750	-24.39556	472.14182	-469.01108	133.09482	472.22556	-473.57870	10.48432	614.57275	463.93130	161.99179	605.07941	460.42758	
4391	43.900	-129.53535	30.61058	-295.85571	244.67613	-23.37196	-303.57715	-111.16079	49.94453	326.43561	264.54239	105.73457	307.85507	75.14371	1123.50879	-456.32791	-24.15488	472.13214	-469.19571	133.17244	472.40274	-473.66675	9.93609	613.97089	463.84088	161.53494	604.46637	460.40085	
4392	43.910	-129.31042	20.44317	-296.64413	244.70740	-23.22560	-303.52261	-111.19535	49.56856	326.52234	263.80399	94.82307	307.17325	75.14565	1123.59851	-456.16187	-23.85506	472.02414	-469.47549	133.86774	471.94421	-473.91635	9.58155	613.56213	463.68842	160.89624	604.01550	460.10056	
4393	43.920	-129.20454	10.29849	-297.22012	244.92944	-23.00020	-303.39206	-111.15479	49.34680	326.56192	263.18030	85.15112	306.78140	75.46990	1123.75085	-455.86642	-23.42711	471.94821	-469.67877	133.94592	471.98889	-474.08578	9.06415	613.03162	463.42776	160.76469	603.76288	460.00449	
4394	43.930	-128.92245	0.63460	-297.37512	244.97809	-22.75299	-303.23428	-111.13522	49.12384	326.51306	262.33331	75.40462	306.41010	75.57510	1124.03723	-455.69141	-23.44724	472.11438	-470.19400	133.84503	472.16864	-474.28336	8.70608	612.67627	463.21350	160.45973	603.55237	460.13364	
4395	43.940	-129.10429	-7.32639	-297.90381	244.95786	-22.56198	-303.09399	-111.09561	48.94344	326.52698	262.17242	66.98258	306.36884	75.98600	1123.94507	-455.22598	-23.07770	471.93784	-470.39120	133.69310	472.36282	-474.53043	8.46304	612.38580	463.10144	159.84390	603.04431	459.93924	
4396	43.950	-129.29869	-14.80992	-297.35138	245.06575	-22.45096	-303.07428	-111.12126	48.61681	326.59842	261.49045	59.21955	306.44916	76.45539	1123.69873	-455.23303	-22.86684	471.85211	-470.49219	133.69273	472.40262	-474.86646	7.93677	611.72003	462.71121	159.46135	602.60919	459.74710	
4397	43.960	-129.63135	-18.55994	-298.04053	245.17700	-22.23470	-302.90985	-110.55499	47.72565	326.56372	261.20950	52.80976	306.90814	76.36658	1123.79431	-455.41571	-22.64742	471.68646	-470.58765	132.99744	473.02887	-474.57785	7.62635	611.32776	462.63266	159.00211	602.25531	459.62955	
4398	43.970	-130.96262	-18.43990	-299.53271	245.21423	-22.06911	-302.85925	-110.40215	47.49289	326.62396	260.70752	47.83210	306.32968	76.11431	1123.95349	-455.86621	-22.70408	472.05579	-470.99652	132.27231	473.47836	-474.88681	7.23743	611.16840	462.43921	158.74290	601.96326	459.52704	
4399	43.980	-131.05295	-20.22778	-298.83856	245.23947	-21.77399	-302.88358	-110.18304	47.45996	326.65619	261.74353	47.49590	305.36945	75.93992	1124.23828	-456.09698	-22.30108	472.52951	-471.07382	136.74187	472.25909	-475.01257	6.79038	611.52252	462.19116	158.44759	602.12817	459.44720	
4400	43.990	-130.94647	-18.84116	-299.27499	245.60007	-21.19077	-302.83478	-110.71898	48.19682	326.77106	262.44720	45.88401	305.22037	76.69828	1124.75537	-455.96857	-22.12847	473.21255	-471.56488	138.54921	472.77362	-475.03470	6.21053	612.44177	462.05630	158.00766	603.29260	459.44647	
4401	44.000	-130.49803	-19.60046	-298.30930	245.25894	-19.70811	-302.79117	-110.69633	49.55914	326.47256	262.59528	45.99284	306.21283	77.92563	1125.47937	-455.82944	-21.74125	473.67270	-471.66806	137.51581	473.28568	-474.97073	5.76182	613.66669	461.87540	157.37869	604.81848	459.34805	
4402	44.010	-130.14496	-19.72429	-298.19656	245.04913	-16.59548	-300.54050	-108.90753	52.21554	327.55911	262.17087	45.58558	306.73102	79.26655	1126.17480	-456.16174	-21.47633	474.13028	-471.92630	139.73775	473.65665	-475.09097	5.18534	614.44818	461.57489	156.73503	605.61566	459.27783	
4403	44.020	-129.98189	-19.55564	-298.36145	242.38684	-12.67934	-297.20331	-106.45558	57.11593	329.41531	262.51431	45.42046	305.96985	79.03840	1126.77502	-456.48376	-20.97657	474.83170	-472.25702	138.58063	474.52832	-475.22458	4.65440	614.60541	461.13916	156.07652	605.83875	459.07138	
4404	44.030	-129.95712	-19.62024	-298.37375	240.81029	-3.04385	-295.83450	-102.98959	65.12395	330.20517	262.61673	45.14433	306.44824	78.89593	1127.31348	-457.17130	-20.65824	475.32916	-472.66495	138.51210	475.06290	-475.49823	4.37982	614.57275	460.86490	155.65753	605.78412	458.84189	
4405	44.040	-129.97966	-19.52159	-298.47559	238.33070	7.05348	-295.70779	-101.56761	75.36790	329.37170	262.80655	44.81330	306.53064	78.64320	1127.61377	-457.38266	-20.54013	475.66443	-473.28110	138.86867	475.13586	-475.82962	3.90297	614.41418	460.38721	155.56212	605.70758	458.60114	
4406	44.050	-129.97949	-19.51349	-298.42108	239.13904	19.19898	-296.98386	-103.41766	87.47781	326.94760	262.58951	44.41005	306.68915	78.54471	1127.55664	-457.25763	-20.54923	475.69635	-473.74054	140.50928	474.76532	-476.38260	3.99340	614.31348	460.37509	155.36034	605.36896	458.15674	
4407	44.060	-129.94197	-19.39141	-298.11090	241.65727	32.45668	-298.16440	-105.00272	99.44035	324.80118	262.78183	44.12104	306.68149	78.10277	1127.34351	-457.25504	-20.61225	475.59964	-473.99655	140.27861	474.98499	-476.57352	3.99275	613.60168	460.02869	155.59502	604.78619	457.89188	
4408	44.070	-130.03398	-19.49390	-298.18762	243.55325	44.60693	-300.59741	-108.28840	111.52003	322.42822	262.86206	43.95592	306.72595	77.74490	1127.19751	-457.09940	-20.76318	475.48422	-474.14893	139.74199	474.99490	-477.11270	4.04232	612.55505	459.92172	155.85980	603.73596	457.72110	
4409	44.080	-130.03015	-19.54040	-298.07425	244.57690	56.36892	-302.58698	-110.07943	123.12507	320.07166	262.88663	43.73438	306.76346	77.90979	1127.14429	-456.66647	-21.20512	475.37195	-474.42722	139.48505	475.08234	-477.60269	4.43534	611.76727	459.63736	155.87526	602.88379	457.37140	
